<svg width="806" height="806" viewBox="0 0 806 806" fill="none" xmlns="http://www.w3.org/2000/svg">
<circle cx="403" cy="403" r="403" fill="#FC4A1E"/>
<path d="M121.788 101.951C50.5741 95.0828 35.6069 75.6562 35.6069 55.8366C35.6069 40.0492 46.1147 29.9344 64.3453 29.9344C85.378 29.9344 105.625 40.4593 121.788 57.0497V101.951ZM128.656 4.06643L124.624 29.9344C109.264 14.1642 88.2143 0 56.6396 0C21.8357 0 0 21.0498 0 53.8375C0 101.951 41.2623 120.968 121.788 129.442V137.541C121.788 161.82 107.214 170.312 84.985 170.312C61.5091 170.312 39.2462 163.033 18.2135 153.721L13.344 184.886C36.4099 194.164 58.2628 201.066 88.2143 201.066C135.132 201.066 157.805 182.05 157.805 139.181V4.06643H128.656V4.06643Z" transform="translate(103 522.338) scale(1.25 -1.25)" fill="white"/>
<path d="M36.0341 114.065V0H0V192.933H28.7384L34.821 153.687C48.558 175.557 70.8209 195.36 102.396 197L108.051 162.606C76.0833 160.983 48.9851 139.54 36.0341 114.065Z" transform="translate(360.027 517.25) scale(1.25 -1.25)" fill="white"/>
<path d="M70.4108 0C44.9187 0 16.6074 8.90173 0 18.2135L5.26244 52.1973C23.476 39.6392 46.9348 29.9344 73.247 29.9344C97.919 29.9344 112.493 39.2291 112.493 55.4094C112.493 73.2129 101.558 79.7055 66.7715 88.1801C21.4427 99.508 3.22922 113.262 3.22922 147.673C3.22922 178.393 29.1314 201.066 71.2309 201.066C95.0828 201.066 116.526 196.197 134.739 188.115L129.084 154.131C112.083 163.836 90.6404 170.722 70.4108 170.722C48.558 170.722 37.2472 162.23 37.2472 148.442C37.2472 135.525 46.9348 128.246 77.2622 120.558C125.017 108.427 146.477 94.6556 146.477 57.8527C146.477 22.6558 120.165 0 70.4108 0Z" transform="translate(520.723 522.334) scale(1.25 -1.25)" fill="white"/>
</svg>
