<svg width="196" height="196" viewBox="0 0 196 196" fill="none" xmlns="http://www.w3.org/2000/svg">
<path d="M707.5 1899C563.5 1858 366.5 1743 275.5 1648C161.5 1529 63.5 1359 22.5 1210C-7.5 1101 -7.5 819 22.5 710C63.5 561 161.5 392 275.5 272C325.5 218 486.5 110 574.5 70C703.5 12 768.5 0 961.5 0C1154.5 0 1219.5 12 1348.5 70C1436.5 110 1597.5 218 1647.5 272C1761.5 392 1859.5 561 1900.5 710C1930.5 819 1930.5 1101 1900.5 1210C1859.5 1359 1761.5 1528 1647.5 1648C1597.5 1702 1436.5 1810 1348.5 1850C1218.5 1909 1155.5 1920 956.5 1919C809.5 1919 764.5 1915 707.5 1899ZM1156.5 1518L1268.5 1496L1296.5 1518C1336.5 1549 1383.5 1547 1423.5 1511C1450.5 1487 1456.5 1475 1456.5 1440C1456.5 1405 1450.5 1393 1423.5 1369C1379.5 1329 1330.5 1329 1290.5 1369C1274.5 1385 1261.5 1405 1261.5 1413C1261.5 1422 1231.5 1433 1164.5 1447C1110.5 1459 1065.5 1467 1064.5 1466C1060.5 1462 1001.5 1187 1004.5 1184C1005.5 1182 1038.5 1176 1076.5 1170C1165.5 1156 1231.5 1135 1303.5 1098C1359.5 1068 1361.5 1068 1395.5 1084C1457.5 1113 1515.5 1103 1563.5 1055C1620.5 999 1619.5 916 1562.5 856C1541.5 832 1532.5 812 1528.5 771C1515.5 654 1430.5 543 1301.5 476C1200.5 423 1100.5 400 966.5 400C771.5 400 618.5 455 505.5 565C437.5 632 401.5 708 401.5 785C401.5 819 396.5 832 380.5 840C324.5 870 303.5 975 341.5 1037C377.5 1097 478.5 1124 534.5 1087C558.5 1072 562.5 1073 624.5 1106C697.5 1145 823.5 1180 888.5 1180C911.5 1180 931.5 1182 931.5 1185C931.5 1197 1003.5 1526 1008.5 1533C1015.5 1544 1035.5 1542 1156.5 1518Z" transform="translate(1.99951 193.906) scale(0.1 -0.1)" fill="#FF4500"/>
<path d="M110.432 98C110.432 152.124 66.5562 196 12.4323 196C-41.6916 196 98.4327 144.124 98.4327 90C98.4327 35.8761 -41.6916 0 12.4323 0C66.5562 0 110.432 43.8761 110.432 98Z" transform="translate(85.5674)" fill="#FF4500"/>
<path d="M110.432 98C110.432 152.124 66.5562 196 12.4323 196C-41.6916 196 98.4327 144.124 98.4327 90C98.4327 35.8761 -41.6916 0 12.4323 0C66.5562 0 110.432 43.8761 110.432 98Z" transform="translate(111) scale(-1 1)" fill="#FF4500"/>
<path d="M1.84806 -1.68365C0.918199 -2.70431 -0.663001 -2.77791 -1.68365 -1.84806C-2.70431 -0.918199 -2.77791 0.663001 -1.84806 1.68365L1.84806 -1.68365ZM45.868 1.66152C46.7856 0.629869 46.6932 -0.950343 45.6615 -1.86798C44.6299 -2.78561 43.0497 -2.69318 42.132 -1.66152L45.868 1.66152ZM0 0C-1.84806 1.68365 -1.84706 1.68475 -1.84603 1.68587C-1.84565 1.68629 -1.8446 1.68744 -1.84384 1.68827C-1.84233 1.68992 -1.84071 1.69168 -1.83898 1.69356C-1.83553 1.69732 -1.83164 1.70154 -1.82731 1.7062C-1.81866 1.71551 -1.80827 1.72662 -1.79614 1.73945C-1.77187 1.7651 -1.7406 1.79767 -1.70227 1.83664C-1.62562 1.9146 -1.52068 2.01826 -1.38689 2.14374C-1.11935 2.39464 -0.736134 2.73306 -0.232866 3.12759C0.773776 3.91673 2.26153 4.93096 4.26425 5.91757C8.28342 7.89755 14.3196 9.73756 22.603 9.47489L22.4446 4.4774C15.0138 4.71303 9.78801 3.06497 6.47385 1.4323C4.8099 0.612582 3.61313 -0.210654 2.85191 -0.807398C2.47125 -1.10581 2.1997 -1.34744 2.03346 -1.50335C1.95036 -1.58128 1.89367 -1.63771 1.86289 -1.66901C1.84751 -1.68465 1.83862 -1.694 1.83617 -1.69659C1.83494 -1.69789 1.83532 -1.6975 1.8373 -1.69536C1.83829 -1.6943 1.83969 -1.69279 1.84148 -1.69084C1.84238 -1.68987 1.84337 -1.68878 1.84447 -1.68758C1.84502 -1.68698 1.84591 -1.686 1.84619 -1.6857C1.84711 -1.68469 1.84806 -1.68365 0 0ZM22.603 9.47489C30.8044 9.21483 36.5255 7.38825 40.2619 5.54269C42.1255 4.62218 43.4815 3.70382 44.3952 2.9885C44.8518 2.63108 45.1972 2.32495 45.4399 2.09533C45.5612 1.98053 45.6569 1.88488 45.7279 1.81153C45.7634 1.77486 45.7927 1.74376 45.816 1.71863C45.8277 1.70606 45.8378 1.69498 45.8465 1.68545C45.8508 1.68069 45.8547 1.6763 45.8583 1.67231C45.8601 1.67032 45.8618 1.66842 45.8634 1.66662C45.8642 1.66572 45.8654 1.66445 45.8658 1.664C45.8669 1.66275 45.868 1.66152 44 0C42.132 -1.66152 42.1331 -1.6627 42.1341 -1.66385C42.1344 -1.6642 42.1354 -1.66533 42.136 -1.66603C42.1373 -1.66744 42.1385 -1.66874 42.1396 -1.66995C42.1417 -1.67237 42.1436 -1.67441 42.1451 -1.67606C42.1481 -1.67936 42.1497 -1.68114 42.15 -1.68143C42.1505 -1.68202 42.1456 -1.67668 42.1351 -1.66579C42.114 -1.64401 42.0705 -1.6 42.0036 -1.53669C41.8698 -1.41011 41.6423 -1.20627 41.3131 -0.948596C40.6554 -0.433749 39.5888 0.298493 38.0476 1.05974C34.9745 2.57768 29.9575 4.23917 22.4446 4.4774L22.603 9.47489Z" transform="translate(76 132)" fill="#FF4500"/>
<circle cx="9" cy="9" r="9" transform="translate(66 98)" fill="#FF4500"/>
<circle cx="9" cy="9" r="9" transform="translate(111 98)" fill="#FF4500"/>
</svg>
